<svg width="22" height="34" viewBox="0 0 22 34" fill="none" xmlns="http://www.w3.org/2000/svg">
<path d="M8.89998 25.4C8.6215 25.4 8.35443 25.5106 8.15751 25.7076C7.9606 25.9045 7.84998 26.1715 7.84998 26.45C7.84998 26.7285 7.9606 26.9956 8.15751 27.1925C8.35443 27.3894 8.6215 27.5 8.89998 27.5H13.1C13.3785 27.5 13.6455 27.3894 13.8424 27.1925C14.0394 26.9956 14.15 26.7285 14.15 26.45C14.15 26.1715 14.0394 25.9045 13.8424 25.7076C13.6455 25.5106 13.3785 25.4 13.1 25.4H8.89998Z" fill="#06D0A8"/>
<path d="M4.7 0.200012C3.58609 0.200012 2.5178 0.642511 1.73015 1.43016C0.942499 2.21782 0.5 3.2861 0.5 4.40001V29.6C0.5 30.7139 0.942499 31.7822 1.73015 32.5699C2.5178 33.3575 3.58609 33.8 4.7 33.8H17.3C18.4139 33.8 19.4822 33.3575 20.2698 32.5699C21.0575 31.7822 21.5 30.7139 21.5 29.6V4.40001C21.5 3.2861 21.0575 2.21782 20.2698 1.43016C19.4822 0.642511 18.4139 0.200012 17.3 0.200012H4.7ZM2.6 4.40001C2.6 3.84306 2.82125 3.30891 3.21508 2.91509C3.6089 2.52126 4.14305 2.30001 4.7 2.30001H17.3C17.857 2.30001 18.3911 2.52126 18.7849 2.91509C19.1787 3.30891 19.4 3.84306 19.4 4.40001V29.6C19.4 30.157 19.1787 30.6911 18.7849 31.0849C18.3911 31.4788 17.857 31.7 17.3 31.7H4.7C4.14305 31.7 3.6089 31.4788 3.21508 31.0849C2.82125 30.6911 2.6 30.157 2.6 29.6V4.40001Z" fill="#06D0A8"/>
</svg>
