<svg width="30" height="30" viewBox="0 0 30 30" fill="none" xmlns="http://www.w3.org/2000/svg">
<path d="M14.2486 0.00473155C11.8411 0.033794 6.66518 0.429419 3.77018 3.08536C1.61675 5.21911 0.864872 8.37379 0.776747 12.2747C0.703622 16.1616 0.615497 23.461 7.65143 25.4485V28.4757C7.65143 28.4757 7.60737 29.6869 8.408 29.9354C9.39425 30.2475 9.95581 29.3157 10.8933 28.3144L12.6417 26.3372C17.4558 26.7375 21.143 25.815 21.5677 25.6782C22.5446 25.366 28.0467 24.6629 28.9458 17.3625C29.8683 9.82317 28.4967 5.07286 26.0208 2.92411H26.0058C25.2586 2.23598 22.2558 0.0478566 15.5471 0.0234815C15.5471 0.0234815 15.0492 -0.0102684 14.2486 0.00379405V0.00473155ZM14.3311 2.12442C15.0146 2.11973 15.4299 2.14879 15.4299 2.14879C21.1083 2.16379 23.8186 3.87286 24.458 4.44848C26.543 6.23536 27.6174 10.5179 26.8308 16.8122C26.0836 22.9154 21.6211 23.3016 20.7952 23.565C20.4436 23.6775 17.1961 24.4782 13.1049 24.2147C13.1049 24.2147 10.058 27.8916 9.1055 28.8385C8.95456 29.0044 8.77831 29.0532 8.66581 29.0288C8.50456 28.9894 8.45581 28.7897 8.46518 28.516L8.49425 23.4919C2.52706 21.8419 2.87862 15.616 2.94237 12.3638C3.0155 9.11161 3.62581 6.45098 5.44268 4.64911C7.88862 2.43754 12.2836 2.13942 14.3292 2.12442H14.3311ZM14.7811 5.37567C14.732 5.37517 14.6833 5.3844 14.6378 5.40283C14.5922 5.42125 14.5508 5.4485 14.5159 5.48302C14.4809 5.51753 14.4531 5.55861 14.4341 5.60391C14.4151 5.6492 14.4053 5.6978 14.4052 5.74692C14.4052 5.95692 14.5758 6.12286 14.7811 6.12286C15.7107 6.10518 16.6345 6.2717 17.4994 6.61282C18.3642 6.95394 19.153 7.4629 19.8202 8.11036C21.1824 9.43317 21.8461 11.2107 21.8714 13.5347C21.8714 13.74 22.0374 13.9107 22.2474 13.9107V13.8957C22.3463 13.8959 22.4414 13.857 22.5118 13.7875C22.5822 13.7179 22.6223 13.6234 22.6233 13.5244C22.6688 12.4305 22.4914 11.3387 22.1019 10.3155C21.7124 9.29228 21.1188 8.35894 20.3574 7.57223C18.8733 6.12192 16.9927 5.37473 14.7811 5.37473V5.37567ZM9.83956 6.23536C9.5742 6.19658 9.30356 6.24985 9.07268 6.38629H9.053C8.51699 6.70049 8.03413 7.0976 7.62237 7.56286C7.28018 7.95848 7.09456 8.35879 7.04581 8.74411C7.01675 8.97379 7.03643 9.20348 7.10487 9.42286L7.12925 9.43786C7.51456 10.5704 8.018 11.6597 8.633 12.6854C9.4252 14.1263 10.4001 15.4588 11.5336 16.65L11.5674 16.6988L11.6208 16.7382L11.6546 16.7775L11.6939 16.8113C12.8895 17.9481 14.2253 18.9276 15.6689 19.726C17.3189 20.6241 18.3202 21.0488 18.9211 21.225V21.2344C19.0974 21.2879 19.2577 21.3122 19.4189 21.3122C19.9311 21.2747 20.4159 21.0668 20.7961 20.7216C21.2593 20.3097 21.652 19.8249 21.9586 19.2863V19.2769C22.2464 18.735 22.1489 18.2222 21.7336 17.8754C20.9019 17.1483 20.0025 16.5026 19.0477 15.9469C18.4083 15.6 17.7586 15.81 17.4952 16.1616L16.9336 16.8694C16.6458 17.221 16.1227 17.1722 16.1227 17.1722L16.1077 17.1816C12.2067 16.185 11.1661 12.2354 11.1661 12.2354C11.1661 12.2354 11.1174 11.6982 11.4783 11.4244L12.1814 10.8582C12.518 10.5844 12.7524 9.93567 12.3914 9.29536C11.8396 8.33925 11.1953 7.43962 10.4677 6.60942C10.3086 6.4137 10.0855 6.28053 9.83768 6.23348L9.83956 6.23536ZM15.4299 7.34911C14.9321 7.34911 14.9321 8.10098 15.4346 8.10098C16.0536 8.11102 16.6645 8.24295 17.2325 8.48923C17.8005 8.73551 18.3144 9.09131 18.7449 9.53629C19.1375 9.96943 19.4392 10.477 19.6322 11.0288C19.8251 11.5807 19.9053 12.1657 19.868 12.7491C19.8697 12.8478 19.91 12.942 19.9803 13.0114C20.0505 13.0808 20.1452 13.1199 20.2439 13.1204L20.2589 13.14C20.3584 13.1393 20.4536 13.0995 20.5239 13.0291C20.5943 12.9588 20.6341 12.8636 20.6349 12.7641C20.6686 11.2744 20.2055 10.0247 19.2971 9.02348C18.3839 8.02223 17.1099 7.46067 15.4833 7.34911H15.4299ZM16.0458 9.37036C15.533 9.35536 15.5133 10.1222 16.0214 10.1372C17.2571 10.201 17.8571 10.8254 17.9358 12.1097C17.9375 12.2072 17.9773 12.3002 18.0467 12.3687C18.1161 12.4372 18.2096 12.4758 18.3071 12.4763H18.3221C18.3722 12.4741 18.4214 12.462 18.4668 12.4407C18.5122 12.4193 18.5529 12.3891 18.5865 12.3518C18.6201 12.3146 18.6459 12.271 18.6625 12.2236C18.6791 12.1763 18.686 12.1261 18.683 12.076C18.5949 10.4016 17.6817 9.45848 16.0608 9.37129H16.0458V9.37036Z" fill="#7C54A4"/>
</svg>
