<svg width="30" height="30" viewBox="0 0 30 30" fill="none" xmlns="http://www.w3.org/2000/svg">
<path fill-rule="evenodd" clip-rule="evenodd" d="M21.7688 17.9775C21.3963 17.7912 19.57 16.8937 19.23 16.7687C18.89 16.645 18.6425 16.5837 18.3938 16.9562C18.1463 17.3262 17.435 18.1637 17.2188 18.4112C17.0013 18.66 16.785 18.69 16.4138 18.505C16.0425 18.3175 14.845 17.9262 13.4263 16.6612C12.3225 15.6762 11.5763 14.46 11.36 14.0875C11.1438 13.7162 11.3363 13.515 11.5225 13.33C11.69 13.1637 11.8938 12.8962 12.08 12.68C12.2663 12.4625 12.3275 12.3075 12.4513 12.0587C12.5763 11.8112 12.5138 11.595 12.42 11.4087C12.3275 11.2225 11.585 9.39374 11.275 8.64999C10.9738 7.92624 10.6675 8.02499 10.44 8.01249C10.2225 8.00249 9.975 7.99999 9.7275 7.99999C9.48 7.99999 9.0775 8.09249 8.7375 8.46499C8.39625 8.83624 7.4375 9.73499 7.4375 11.5637C7.4375 13.3912 8.7675 15.1575 8.95375 15.4062C9.14 15.6537 11.5725 19.4062 15.2988 21.015C16.1863 21.3975 16.8775 21.6262 17.4163 21.7962C18.3063 22.08 19.1163 22.04 19.7563 21.9437C20.4688 21.8375 21.9538 21.045 22.2638 20.1775C22.5725 19.31 22.5725 18.5662 22.48 18.4112C22.3875 18.2562 22.14 18.1637 21.7675 17.9775H21.7688ZM14.9913 27.2312H14.9863C12.773 27.2316 10.6005 26.6367 8.69625 25.5087L8.24625 25.2412L3.56875 26.4687L4.8175 21.9087L4.52375 21.4412C3.28642 19.4717 2.63162 17.1922 2.635 14.8662C2.6375 8.05374 8.18 2.51124 14.9963 2.51124C18.2963 2.51124 21.3988 3.79874 23.7313 6.13374C24.8817 7.27947 25.7936 8.64195 26.4141 10.1424C27.0346 11.6428 27.3514 13.2513 27.3463 14.875C27.3438 21.6875 21.8013 27.2312 14.9913 27.2312ZM25.5063 4.35999C24.129 2.97364 22.4903 1.87441 20.6851 1.12599C18.8799 0.37757 16.9442 -0.00515634 14.99 -9.81322e-06C6.7975 -9.81322e-06 0.1275 6.66874 0.125 14.865C0.12375 17.485 0.8075 20.0425 2.10875 22.2962L0 30L7.88 27.9325C10.0598 29.1201 12.5026 29.7424 14.985 29.7425H14.9913C23.1838 29.7425 29.8538 23.0737 29.8563 14.8762C29.8623 12.9228 29.481 10.9876 28.7343 9.18253C27.9876 7.37745 26.8905 5.73833 25.5063 4.35999Z" fill="#2AB641"/>
</svg>
